<?xml version="1.0" encoding="UTF-8" standalone="no"?>
<svg width="800" height="600" xmlns="http://www.w3.org/2000/svg">
  <!-- User -->
  <rect x="50" y="150" width="120" height="50" fill="white" stroke="black"/>
  <text x="110" y="180" font-size="14" text-anchor="middle">User</text>
  
  <!-- Login System -->
  <ellipse cx="250" cy="175" rx="90" ry="40" fill="white" stroke="black"/>
  <text x="250" y="180" font-size="14" text-anchor="middle">Login System</text>
  
  <!-- Database -->
  <rect x="50" y="350" width="120" height="50" fill="white" stroke="black"/>
  <text x="110" y="380" font-size="14" text-anchor="middle">Database</text>
  
  <!-- User Dashboard -->
  <rect x="600" y="150" width="140" height="50" fill="white" stroke="black"/>
  <text x="670" y="180" font-size="14" text-anchor="middle">User Dashboard</text>
  
  <!-- Metal Rates API -->
  <ellipse cx="500" cy="225" rx="100" ry="40" fill="white" stroke="black"/>
  <text x="500" y="230" font-size="14" text-anchor="middle">Metal Rates API</text>
  
  <!-- Tax Calculation Module -->
  <ellipse cx="500" cy="350" rx="100" ry="40" fill="white" stroke="black"/>
  <text x="500" y="355" font-size="14" text-anchor="middle">Tax Calculation Module</text>
  
  <!-- External Metal Rates Source -->
  <rect x="300" y="450" width="180" height="50" fill="white" stroke="black"/>
  <text x="390" y="480" font-size="14" text-anchor="middle">External Metal Rates Source</text>
  
  <!-- Tax Rules -->
  <rect x="600" y="450" width="120" height="50" fill="white" stroke="black"/>
  <text x="660" y="480" font-size="14" text-anchor="middle">Tax Rules</text>
  
  <!-- Arrows and Labels -->
  <line x1="170" y1="175" x2="160" y2="175" stroke="black" marker-end="url(#arrow)"/>
  <text x="175" y="170" font-size="12">Login Request</text>
  
  <line x1="250" y1="215" x2="250" y2="330" stroke="black" marker-end="url(#arrow)"/>
  <text x="255" y="310" font-size="12">Validate</text>
  
  <line x1="600" y1="175" x2="550" y2="175" stroke="black" marker-end="url(#arrow)"/>
  <text x="570" y="165" font-size="12">Send Rates</text>
  
  <line x1="500" y1="265" x2="500" y2="310" stroke="black" marker-end="url(#arrow)"/>
  <text x="505" y="305" font-size="12">Return Final Price</text>
  
  <line x1="500" y1="390" x2="500" y2="440" stroke="black" marker-end="url(#arrow)"/>
  <text x="505" y="430" font-size="12">Tax Info</text>
  
  <line x1="400" y1="450" x2="400" y2="410" stroke="black" marker-end="url(#arrow)"/>
  <text x="405" y="435" font-size="12">Fetch Rates</text>
  
  <!-- Arrow marker -->
  <defs>
    <marker id="arrow" markerWidth="10" markerHeight="10" refX="5" refY="5" orient="auto" markerUnits="strokeWidth">
      <path d="M 0 0 L 10 5 L 0 10 z" fill="black"/>
    </marker>
  </defs>
</svg>
